<svg width="25" height="23" viewBox="0 0 25 23" fill="none" xmlns="http://www.w3.org/2000/svg">
<path d="M12.5 23C5.59627 23 0 17.8514 0 11.5C0 5.14857 5.59627 0 12.5 0C19.4037 0 25 5.14857 25 11.5C25 17.8514 19.4037 23 12.5 23ZM16.6477 6.41774C16.4511 6.23782 16.245 6.04909 16.0776 5.89468C15.9269 5.75556 15.8206 5.58399 15.7666 5.39804C15.6905 5.13558 15.629 4.87034 15.5262 4.61577L14.6497 2.44329C13.9561 2.30417 13.2384 2.22581 12.5 2.22581V3.49544C12.5852 4.08064 12.1149 5.17686 11.3594 5.87196C11.057 6.15018 10.8871 6.52764 10.8871 6.92133V8.40566C10.8871 8.94542 10.5711 9.44159 10.0575 9.70266C9.33317 10.0713 8.30292 10.5865 7.59728 10.9134C7.01865 11.1814 6.48337 11.5227 6.00202 11.922L5.96169 11.9554C5.61747 12.2412 5.31185 12.5641 5.05141 12.9171C4.57863 13.5556 3.80847 14.6059 3.30796 15.2885C4.33972 17.3984 6.19909 19.0928 8.50958 20.0132L9.71976 19.4563C10.256 19.2096 10.8871 19.5681 10.8871 20.1199V20.6439C11.2898 20.7037 11.6996 20.7417 12.1164 20.7561L13.5428 19.4438C13.8579 19.154 13.8579 18.6843 13.5428 18.3944L13.3065 18.1774L12.7853 17.6979C12.628 17.5533 12.628 17.3182 12.7853 17.1735L13.0217 16.956C13.1789 16.8113 13.1789 16.5762 13.0217 16.4316L12.6184 16.0606C12.5427 15.9911 12.4401 15.952 12.3332 15.9521H11.88C11.7752 15.9521 11.6744 15.9145 11.5988 15.8468L11.0988 15.3993C11.0375 15.3444 10.9968 15.273 10.9824 15.1954C10.9681 15.1178 10.981 15.0381 11.0192 14.9676L11.8049 13.5213C11.939 13.2746 11.744 12.9843 11.4446 12.9843H11.1603C11.063 12.9843 10.9693 13.0168 10.8962 13.0752L10.4284 13.449C10.3226 13.5335 10.1947 13.5911 10.0572 13.6163C9.91981 13.6415 9.77763 13.6334 9.64466 13.5927L8.07359 13.1109C7.95364 13.0741 7.84933 13.0035 7.77542 12.9092C7.70151 12.8148 7.66176 12.7014 7.66179 12.5851C7.66179 12.375 7.79083 12.1835 7.99496 12.0894L8.55343 11.8325C9.02772 11.6141 9.55091 11.5005 10.0811 11.5005C10.6114 11.5005 11.2198 10.235 11.6941 10.0166H15.0585C15.4864 10.0166 15.8962 9.86032 16.1991 9.5821L16.8891 8.94728C17.1774 8.68197 17.3393 8.32218 17.3392 7.94706C17.3391 7.66281 17.278 7.38137 17.1593 7.11893C17.0406 6.85648 16.8668 6.61819 16.6477 6.41774ZM21.0181 10.6537C20.7263 10.721 20.4718 10.8856 20.3049 11.116L19.3987 12.3667C19.2661 12.5494 19.1953 12.7642 19.1953 12.9839C19.1953 13.2036 19.2661 13.4183 19.3987 13.6011L20.3861 14.9634C20.503 15.1244 20.6633 15.2551 20.8518 15.3414L21.506 15.6423C22.1875 14.394 22.5806 12.9899 22.5806 11.5C22.5806 11.098 22.5433 10.7043 22.4889 10.3157L21.0181 10.6537Z" fill="black"/>
</svg>
