<svg width="16" height="15" viewBox="0 0 16 15" fill="none" xmlns="http://www.w3.org/2000/svg">
<path d="M14.8149 0H1.18111C0.529111 0 0 0.481764 0 1.07501V13.8427C0 14.4368 0.529111 14.9192 1.18111 14.9192H14.8149C15.4673 14.9192 16 14.4368 16 13.8427V1.07501C16 0.481764 15.4673 0 14.8149 0ZM4.74533 12.7132H2.37111V5.59365H4.74533V12.7132ZM3.55822 4.62017C2.79756 4.62017 2.18267 4.04537 2.18267 3.33671C2.18267 2.62909 2.79756 2.05429 3.55822 2.05429C4.31711 2.05429 4.93356 2.62909 4.93356 3.33671C4.93356 4.04537 4.31711 4.62017 3.55822 4.62017ZM13.6333 12.7132H11.2629V9.25112C11.2629 8.42518 11.2456 7.36323 10.0293 7.36323C8.79422 7.36323 8.606 8.26273 8.606 9.19124V12.7134H6.23378V5.59365H8.51044V6.56588H8.54289C8.85978 6.00641 9.634 5.41607 10.7887 5.41607C13.19 5.41607 13.6336 6.89016 13.6336 8.8079L13.6333 12.7132Z" fill="black"/>
</svg>
